<svg width="12" height="15" viewBox="0 0 12 15" fill="none" xmlns="http://www.w3.org/2000/svg">
<path d="M2.6071 8.8063C3.02893 9.61315 3.62923 10.4976 4.40799 11.4596C5.02451 12.2354 5.6897 12.9802 6.40356 13.6939C7.11743 12.9802 7.78262 12.2354 8.39914 11.4596C9.1779 10.4976 9.7782 9.61315 10.2 8.8063C10.7192 7.81326 10.9788 6.93659 10.9788 6.1763C10.9788 5.416 10.776 4.70225 10.3704 4.03505C9.96477 3.36785 9.40504 2.8403 8.69117 2.45239C7.97731 2.06449 7.21477 1.87053 6.40356 1.87053C5.59236 1.87053 4.82982 2.06449 4.11595 2.45239C3.40209 2.8403 2.84235 3.36785 2.43675 4.03505C2.03115 4.70225 1.82834 5.416 1.82834 6.1763C1.82834 6.93659 2.08793 7.81326 2.6071 8.8063ZM6.40356 14.9507C6.11153 14.6715 5.81949 14.3922 5.52746 14.1129C4.84604 13.4302 4.22952 12.7319 3.6779 12.0182C2.86669 10.9941 2.23395 10.0476 1.77967 9.17869C1.1956 8.06152 0.903564 7.06848 0.903564 6.19957C0.903564 5.2686 1.15504 4.39968 1.65799 3.59284C2.16094 2.78599 2.82613 2.14983 3.65356 1.68434C4.481 1.21885 5.39767 0.986108 6.40356 0.986108C7.40946 0.986108 8.32613 1.21885 9.15356 1.68434C9.981 2.14983 10.6462 2.78599 11.1491 3.59284C11.6521 4.39968 11.9036 5.2686 11.9036 6.19957C11.9036 7.06848 11.6115 8.06152 11.0275 9.17869C10.5732 10.0476 9.94044 10.9941 9.12923 12.0182C8.57761 12.7319 7.96109 13.4302 7.27967 14.1129L6.40356 14.9507ZM6.40356 7.96843C6.92274 7.96843 7.35268 7.79775 7.69339 7.45639C8.0341 7.11503 8.20445 6.70385 8.20445 6.22285C8.20445 5.74184 8.0341 5.33066 7.69339 4.9893C7.35268 4.64795 6.92274 4.47727 6.40356 4.47727C5.88439 4.47727 5.44634 4.64795 5.08941 4.9893C4.73247 5.33066 4.55401 5.74184 4.55401 6.22285C4.55401 6.70385 4.73247 7.11503 5.08941 7.45639C5.44634 7.79775 5.88439 7.96843 6.40356 7.96843ZM6.40356 8.85285C5.65725 8.85285 5.0164 8.59683 4.481 8.0848C3.9456 7.57276 3.6779 6.95211 3.6779 6.22285C3.6779 5.49358 3.9456 4.87293 4.481 4.36089C5.0164 3.84886 5.65725 3.59284 6.40356 3.59284C7.14988 3.59284 7.79073 3.84886 8.32613 4.36089C8.86153 4.87293 9.12923 5.49358 9.12923 6.22285C9.12923 6.95211 8.86153 7.57276 8.32613 8.0848C7.79073 8.59683 7.14988 8.85285 6.40356 8.85285Z" fill="#0D3D86"/>
</svg>
