<svg width="1440" height="7736" viewBox="0 0 1440 7736" fill="none" xmlns="http://www.w3.org/2000/svg">
<g clip-path="url(#clip0_361_2483)">
<g opacity="0.25">
<path d="M625.043 1102.47C406.264 1252.57 0.947655 963.555 -102.589 719.271C-206.125 474.987 -90.7099 80.0116 128.069 -70.0893C346.848 -220.19 844.013 -245.497 947.549 -1.21347" stroke="#c27aff"/>
<path d="M613.485 1067.89C406.861 1209.65 24.0617 936.685 -73.7226 705.972C-171.507 475.259 -62.5038 102.227 144.121 -39.5345C350.745 -181.296 820.29 -205.198 918.074 25.5148" stroke="#c27aff"/>
<path d="M601.927 1033.3C407.457 1166.72 47.1757 909.815 -44.8565 692.674C-136.889 475.532 -34.2977 124.443 160.172 -8.97973C354.642 -142.403 796.567 -164.898 888.599 52.2432" stroke="#c27aff"/>
<path d="M590.369 998.711C408.053 1123.79 70.2897 882.945 -15.9905 679.375C-102.271 475.805 -6.09155 146.659 176.224 21.5751C358.54 -103.509 772.844 -124.598 859.124 78.9716" stroke="#c27aff"/>
<path d="M578.811 964.123C408.65 1080.87 93.4037 856.075 12.8755 666.077C-67.6527 476.078 22.1145 168.875 192.276 52.1299C362.437 -64.6152 749.121 -84.2986 829.649 105.7" stroke="#c27aff"/>
<path d="M567.253 929.536C409.246 1037.94 116.518 829.205 41.7416 652.778C-33.0346 476.351 50.3206 191.091 208.327 82.6847C366.334 -25.7215 725.398 -43.999 800.174 132.428" stroke="#c27aff"/>
<path d="M555.695 894.948C409.843 995.015 139.632 802.335 70.6076 639.479C1.58344 476.623 78.5268 213.307 224.379 113.239C370.232 13.1722 701.675 -3.69925 770.699 159.157" stroke="#c27aff"/>
<path d="M544.137 860.36C410.439 952.089 162.746 775.465 99.4736 626.181C36.2015 476.896 106.733 235.523 240.431 143.794C374.129 52.0659 677.952 36.6004 741.224 185.885" stroke="#c27aff"/>
<path d="M532.579 825.773C411.036 909.162 185.86 748.596 128.34 612.882C70.8195 477.169 134.939 257.738 256.483 174.349C378.026 90.9597 654.229 76.9001 711.75 212.613" stroke="#c27aff"/>
<path d="M521.021 791.185C411.632 866.236 208.974 721.726 157.206 599.584C105.438 477.442 163.145 279.954 272.534 204.904C381.924 129.853 630.506 117.2 682.275 239.342" stroke="#c27aff"/>
<path d="M509.463 756.598C412.228 823.309 232.088 694.856 186.072 586.285C140.056 477.715 191.351 302.17 288.586 235.459C385.821 168.747 606.784 157.499 652.8 266.07" stroke="#c27aff"/>
<path d="M497.906 722.01C412.825 780.383 255.202 667.986 214.938 572.987C174.674 477.988 219.557 324.386 304.638 266.014C389.718 207.641 583.061 197.799 623.325 292.799" stroke="#c27aff"/>
<path d="M486.348 687.423C413.421 737.456 278.316 641.116 243.804 559.688C209.292 478.26 247.763 346.602 320.69 296.568C393.616 246.535 559.338 238.099 593.85 319.527" stroke="#c27aff"/>
<path d="M474.79 652.835C414.018 694.53 301.43 614.246 272.67 546.39C243.91 478.533 275.969 368.818 336.741 327.123C397.513 285.428 535.615 278.399 564.375 346.255" stroke="#c27aff"/>
<path d="M463.232 618.247C414.614 651.603 324.544 587.376 301.536 533.091C278.528 478.806 304.176 391.034 352.793 357.678C401.411 324.322 511.892 318.698 534.9 372.984" stroke="#c27aff"/>
<path d="M451.674 583.66C415.21 608.677 347.658 560.507 330.402 519.793C313.146 479.079 332.381 413.249 368.845 388.233C405.308 363.216 488.169 358.998 505.425 399.712" stroke="#c27aff"/>
<path d="M440.116 549.072C415.807 565.75 370.772 533.637 359.268 506.494C347.764 479.351 360.588 435.465 384.896 418.787C409.205 402.11 464.446 399.298 475.95 426.44" stroke="#c27aff"/>
<path d="M428.558 514.485C416.403 522.824 393.886 506.767 388.134 493.196C382.382 479.624 388.794 457.681 400.948 449.342C413.102 441.003 440.723 439.597 446.475 453.169" stroke="#c27aff"/>
</g>
<g opacity="0.25">
<path d="M1516.8 2112.81C1396.69 2272.17 1223.41 2236.06 1061.45 2181.86C899.484 2127.66 790.01 2015.76 739.374 1852.64C688.739 1689.53 713.291 1640.5 818.397 1398.91C923.503 1157.32 1073.13 689.277 1243.88 693.022C1414.63 696.768 1581.15 1121.1 1638 1416.89" stroke="#c27aff"/>
<path d="M1501.81 2083.15C1387.15 2235.28 1221.76 2200.8 1067.16 2149.07C912.553 2097.33 808.055 1990.51 759.721 1834.81C711.387 1679.12 734.823 1632.32 835.152 1401.71C935.48 1171.1 1078.31 724.33 1241.3 727.906C1404.29 731.481 1563.23 1136.53 1617.5 1418.87" stroke="#c27aff"/>
<path d="M1486.82 2053.5C1377.62 2198.38 1220.1 2165.55 1072.86 2116.28C925.622 2067 826.1 1965.27 780.068 1816.99C734.035 1668.7 756.356 1624.13 851.906 1404.51C947.457 1184.88 1083.48 759.384 1238.71 762.789C1393.94 766.194 1545.31 1151.95 1597 1420.85" stroke="#c27aff"/>
<path d="M1471.83 2023.85C1368.09 2161.48 1218.45 2130.29 1078.57 2083.48C938.691 2036.67 844.145 1940.03 800.414 1799.16C756.683 1658.29 777.888 1615.95 868.661 1407.3C959.434 1198.66 1088.66 794.437 1236.13 797.672C1383.59 800.907 1527.4 1167.38 1576.5 1422.83" stroke="#c27aff"/>
<path d="M1456.84 1994.2C1358.56 2124.59 1216.79 2095.04 1084.28 2050.69C951.76 2006.35 862.19 1914.79 820.761 1781.33C779.332 1647.88 799.42 1607.76 885.416 1410.1C971.411 1212.44 1093.83 829.491 1233.54 832.555C1373.25 835.62 1509.48 1182.8 1556 1424.81" stroke="#c27aff"/>
<path d="M1441.85 1964.54C1349.03 2087.69 1215.14 2059.79 1089.98 2017.9C964.829 1976.02 880.235 1889.55 841.107 1763.51C801.98 1637.47 820.952 1599.58 902.17 1412.9C983.388 1226.22 1099.01 864.544 1230.95 867.439C1362.9 870.333 1491.57 1198.23 1535.5 1426.79" stroke="#c27aff"/>
<path d="M1426.86 1934.89C1339.5 2050.8 1213.48 2024.53 1095.69 1985.11C977.898 1945.69 898.28 1864.31 861.454 1745.68C824.628 1627.05 842.484 1591.4 918.925 1415.7C995.366 1240 1104.19 899.598 1228.37 902.322C1352.55 905.046 1473.65 1213.65 1515 1428.77" stroke="#c27aff"/>
<path d="M1411.86 1905.24C1329.97 2013.9 1211.83 1989.28 1101.4 1952.32C990.967 1915.37 916.325 1839.07 881.801 1727.85C847.276 1616.64 864.017 1583.21 935.68 1418.49C1007.34 1253.77 1109.36 934.651 1225.78 937.205C1342.2 939.759 1455.74 1229.08 1494.5 1430.75" stroke="#c27aff"/>
<path d="M1396.87 1875.59C1320.44 1977 1210.17 1954.02 1107.1 1919.53C1004.04 1885.04 934.37 1813.83 902.147 1710.03C869.925 1606.23 885.549 1575.03 952.434 1421.29C1019.32 1267.55 1114.54 969.705 1223.2 972.088C1331.86 974.472 1437.82 1244.5 1474 1432.73" stroke="#c27aff"/>
<path d="M1381.88 1845.93C1310.91 1940.11 1208.52 1918.77 1112.81 1886.74C1017.1 1854.71 952.415 1788.59 922.494 1692.2C892.573 1595.82 907.081 1566.84 969.189 1424.09C1031.3 1281.33 1119.71 1004.76 1220.61 1006.97C1321.51 1009.18 1419.9 1259.93 1453.5 1434.71" stroke="#c27aff"/>
<path d="M1366.89 1816.28C1301.37 1903.21 1206.86 1883.51 1118.52 1853.95C1030.17 1824.38 970.46 1763.35 942.841 1674.37C915.221 1585.4 928.613 1558.66 985.944 1426.89C1043.27 1295.11 1124.89 1039.81 1218.03 1041.85C1311.16 1043.9 1401.99 1275.35 1433 1436.69" stroke="#c27aff"/>
<path d="M1351.9 1786.63C1291.84 1866.31 1205.21 1848.26 1124.22 1821.16C1043.24 1794.06 988.505 1738.1 963.187 1656.55C937.869 1574.99 950.146 1550.48 1002.7 1429.68C1055.25 1308.89 1130.07 1074.87 1215.44 1076.74C1300.82 1078.61 1384.07 1290.78 1412.5 1438.67" stroke="#c27aff"/>
<path d="M1336.91 1756.98C1282.31 1829.42 1203.55 1813 1129.93 1788.36C1056.31 1763.73 1006.55 1712.86 983.534 1638.72C960.518 1564.58 971.678 1542.29 1019.45 1432.48C1067.23 1322.67 1135.24 1109.92 1212.86 1111.62C1290.47 1113.32 1366.16 1306.2 1392 1440.65" stroke="#c27aff"/>
<path d="M1321.92 1727.32C1272.78 1792.52 1201.9 1777.75 1135.64 1755.57C1069.38 1733.4 1024.6 1687.62 1003.88 1620.89C983.166 1554.17 993.21 1534.11 1036.21 1435.28C1079.21 1336.45 1140.42 1144.97 1210.27 1146.5C1280.12 1148.04 1348.24 1321.63 1371.5 1442.63" stroke="#c27aff"/>
<path d="M1306.93 1697.67C1263.25 1755.62 1200.24 1742.49 1141.34 1722.78C1082.45 1703.07 1042.64 1662.38 1024.23 1603.07C1005.81 1543.75 1014.74 1525.92 1052.96 1438.07C1091.18 1350.22 1145.59 1180.03 1207.68 1181.39C1269.78 1182.75 1330.33 1337.05 1351 1444.61" stroke="#c27aff"/>
<path d="M1291.94 1668.02C1253.72 1718.73 1198.59 1707.24 1147.05 1689.99C1095.52 1672.75 1060.69 1637.14 1044.57 1585.24C1028.46 1533.34 1036.27 1517.74 1069.72 1440.87C1103.16 1364 1150.77 1215.08 1205.1 1216.27C1259.43 1217.46 1312.41 1352.48 1330.5 1446.59" stroke="#c27aff"/>
<path d="M1276.95 1638.37C1244.19 1681.83 1196.93 1671.98 1152.76 1657.2C1108.59 1642.42 1078.73 1611.9 1064.92 1567.41C1051.11 1522.93 1057.81 1509.56 1086.47 1443.67C1115.14 1377.78 1155.94 1250.13 1202.51 1251.15C1249.08 1252.18 1294.49 1367.9 1310 1448.57" stroke="#c27aff"/>
<path d="M1261.95 1608.72C1234.66 1644.94 1195.28 1636.73 1158.47 1624.41C1121.66 1612.09 1096.78 1586.66 1085.27 1549.59C1073.76 1512.52 1079.34 1501.37 1103.23 1446.47C1127.11 1391.56 1161.12 1285.19 1199.93 1286.04C1238.73 1286.89 1276.58 1383.33 1289.5 1450.55" stroke="#c27aff"/>
<path d="M1246.96 1579.06C1225.12 1608.04 1193.62 1601.47 1164.17 1591.62C1134.72 1581.76 1114.82 1561.42 1105.61 1531.76C1096.41 1502.1 1100.87 1493.19 1119.98 1449.26C1139.09 1405.34 1166.3 1320.24 1197.34 1320.92C1228.39 1321.6 1258.66 1398.75 1269 1452.53" stroke="#c27aff"/>
<path d="M1231.97 1549.41C1215.59 1571.14 1191.97 1566.22 1169.88 1558.83C1147.79 1551.44 1132.87 1536.18 1125.96 1513.93C1119.06 1491.69 1122.4 1485.01 1136.74 1452.06C1151.07 1419.12 1171.47 1355.29 1194.76 1355.8C1218.04 1356.31 1240.75 1414.18 1248.5 1454.51" stroke="#c27aff"/>
<path d="M1216.98 1519.76C1206.06 1534.25 1190.31 1530.96 1175.59 1526.04C1160.86 1521.11 1150.91 1510.94 1146.31 1496.11C1141.7 1481.28 1143.94 1476.82 1153.49 1454.86C1163.05 1432.9 1176.65 1390.35 1192.17 1390.69C1207.69 1391.03 1222.83 1429.6 1228 1456.49" stroke="#c27aff"/>
<path d="M1201.99 1490.11C1196.53 1497.35 1188.66 1495.71 1181.29 1493.24C1173.93 1490.78 1168.96 1485.69 1166.65 1478.28C1164.35 1470.87 1165.47 1468.64 1170.25 1457.66C1175.02 1446.68 1181.82 1425.4 1189.59 1425.57C1197.35 1425.74 1204.92 1445.03 1207.5 1458.47" stroke="#c27aff"/>
</g>
<g opacity="0.25">
<path d="M838.477 2352.89C935.898 2679.69 760.756 2636.11 625.788 2705.56C490.82 2775.02 350.011 2768.78 190.632 2686.29C31.2538 2603.79 -75.4841 2481.9 -139.229 2309.58C-202.974 2137.27 -177.302 2103.49 -115.344 1859.18C-53.3869 1614.88 -40.5461 1034.07 158.167 1136.92" stroke="#c27aff"/>
<path d="M812.679 2338.94C905.672 2650.89 738.491 2609.28 609.658 2675.58C480.825 2741.88 346.416 2735.93 194.282 2657.18C42.1479 2578.44 -59.7383 2462.08 -120.586 2297.6C-181.434 2133.12 -156.928 2100.88 -97.7867 1867.68C-38.6454 1634.48 -26.3883 1080.06 163.292 1178.24" stroke="#c27aff"/>
<path d="M786.881 2324.99C875.446 2622.08 716.226 2582.46 593.528 2645.6C470.83 2708.75 342.821 2703.08 197.932 2628.08C53.042 2553.08 -43.9925 2442.27 -101.943 2285.62C-159.893 2128.97 -136.554 2098.26 -80.2291 1876.17C-23.904 1654.07 -12.2306 1126.06 168.417 1219.57" stroke="#c27aff"/>
<path d="M761.084 2311.04C845.22 2593.28 693.961 2555.64 577.398 2615.63C460.835 2675.61 339.227 2670.22 201.581 2598.98C63.9362 2527.73 -28.2466 2422.46 -83.2993 2273.64C-138.352 2124.83 -116.18 2095.65 -62.6714 1884.66C-9.16262 1673.67 1.92715 1172.06 173.543 1260.89" stroke="#c27aff"/>
<path d="M735.286 2297.1C814.994 2564.48 671.695 2528.82 561.267 2585.65C450.839 2642.47 335.632 2637.37 205.231 2569.87C74.8302 2502.38 -12.5009 2402.64 -64.656 2261.66C-116.811 2120.68 -95.8063 2093.04 -45.1138 1893.15C5.57873 1693.27 16.0848 1218.06 178.668 1302.21" stroke="#c27aff"/>
<path d="M709.488 2283.15C784.768 2535.67 649.43 2501.99 545.137 2555.67C440.844 2609.34 332.037 2604.52 208.88 2540.77C85.7243 2477.02 3.24494 2382.83 -46.0127 2249.68C-95.2703 2116.53 -75.4324 2090.43 -27.5561 1901.64C20.3201 1712.86 30.2425 1264.05 183.793 1343.53" stroke="#c27aff"/>
<path d="M683.69 2269.2C754.542 2506.87 627.165 2475.17 529.007 2525.69C430.849 2576.2 328.442 2571.66 212.53 2511.67C96.6184 2451.67 18.9908 2363.02 -27.3693 2237.7C-73.7295 2112.38 -55.0585 2087.81 -9.99847 1910.14C35.0615 1732.46 44.4003 1310.05 188.919 1384.86" stroke="#c27aff"/>
<path d="M657.892 2255.25C724.316 2478.07 604.9 2448.35 512.877 2495.71C420.853 2543.06 324.847 2538.81 216.18 2482.56C107.512 2426.32 34.7366 2343.21 -8.72601 2225.72C-52.1886 2108.23 -34.6846 2085.2 7.55915 1918.63C49.8029 1752.06 58.5579 1356.05 194.044 1426.18" stroke="#c27aff"/>
<path d="M632.094 2241.3C694.09 2449.26 582.635 2421.53 496.747 2465.73C410.858 2509.93 321.252 2505.96 219.829 2453.46C118.407 2400.96 50.4825 2323.39 9.91735 2213.74C-30.6478 2104.08 -14.3107 2082.59 25.1168 1927.12C64.5443 1771.65 72.7157 1402.05 199.169 1467.5" stroke="#c27aff"/>
<path d="M606.296 2227.35C663.863 2420.46 560.37 2394.7 480.616 2435.75C400.863 2476.79 317.657 2473.1 223.479 2424.36C129.301 2375.61 66.2282 2303.58 28.5606 2201.76C-9.10696 2099.94 6.0632 2079.97 42.6745 1935.61C79.2857 1791.25 86.8734 1448.04 204.295 1508.82" stroke="#c27aff"/>
<path d="M580.498 2213.4C633.637 2391.66 538.105 2367.88 464.486 2405.77C390.867 2443.65 314.062 2440.25 227.129 2395.25C140.195 2350.26 81.974 2283.77 47.204 2189.78C12.4339 2095.79 26.4371 2077.36 60.2321 1944.11C94.0271 1810.85 101.031 1494.04 209.42 1550.14" stroke="#c27aff"/>
<path d="M554.701 2199.45C603.411 2362.85 515.84 2341.06 448.356 2375.79C380.872 2410.52 310.467 2407.4 230.778 2366.15C151.089 2324.9 97.7199 2263.95 65.8473 2177.8C33.9747 2091.64 46.811 2074.75 77.7897 1952.6C108.768 1830.45 115.189 1540.04 214.545 1591.47" stroke="#c27aff"/>
<path d="M528.903 2185.5C573.185 2334.05 493.575 2314.24 432.226 2345.81C370.877 2377.38 306.873 2374.54 234.428 2337.05C161.983 2299.55 113.466 2244.14 84.4906 2165.82C55.5155 2087.49 67.1849 2072.14 95.3474 1961.09C123.51 1850.04 129.347 1586.04 219.671 1632.79" stroke="#c27aff"/>
<path d="M503.105 2171.55C542.959 2305.24 471.31 2287.41 416.096 2315.83C360.882 2344.24 303.278 2341.69 238.077 2307.94C172.877 2274.19 129.211 2224.33 103.134 2153.84C77.0564 2083.34 87.5588 2069.52 112.905 1969.58C138.251 1869.64 143.504 1632.03 224.796 1674.11" stroke="#c27aff"/>
<path d="M477.307 2157.6C512.733 2276.44 449.044 2260.59 399.965 2285.85C350.886 2311.11 299.683 2308.84 241.727 2278.84C183.771 2248.84 144.957 2204.51 121.777 2141.86C98.5972 2079.2 107.933 2066.91 130.463 1978.07C152.993 1889.24 157.662 1678.03 229.921 1715.43" stroke="#c27aff"/>
<path d="M451.509 2143.66C482.507 2247.64 426.779 2233.77 383.835 2255.87C340.891 2277.97 296.088 2275.98 245.377 2249.74C194.665 2223.49 160.703 2184.7 140.421 2129.88C120.138 2075.05 128.307 2064.3 148.02 1986.57C167.734 1908.83 171.82 1724.03 235.047 1756.76" stroke="#c27aff"/>
<path d="M425.711 2129.71C452.281 2218.83 404.514 2206.95 367.705 2225.89C330.896 2244.83 292.493 2243.13 249.026 2220.63C205.559 2198.13 176.449 2164.89 159.064 2117.89C141.679 2070.9 148.68 2061.69 165.578 1995.06C182.475 1928.43 185.977 1770.03 240.172 1798.08" stroke="#c27aff"/>
<path d="M399.913 2115.76C422.054 2190.03 382.249 2180.12 351.575 2195.91C320.9 2211.7 288.898 2210.28 252.676 2191.53C216.453 2172.78 192.195 2145.08 177.707 2105.91C163.22 2066.75 169.054 2059.07 183.136 2003.55C197.217 1948.03 200.135 1816.02 245.297 1839.4" stroke="#c27aff"/>
<path d="M374.115 2101.81C391.828 2161.23 359.984 2153.3 335.444 2165.93C310.905 2178.56 285.303 2177.42 256.325 2162.43C227.347 2147.43 207.94 2125.26 196.35 2093.93C184.76 2062.6 189.428 2056.46 200.693 2012.04C211.958 1967.62 214.293 1862.02 250.422 1880.72" stroke="#c27aff"/>
<path d="M348.317 2087.86C361.602 2132.42 337.719 2126.48 319.314 2135.95C300.91 2145.42 281.708 2144.57 259.975 2133.32C238.242 2122.07 223.686 2105.45 214.994 2081.95C206.301 2058.46 209.802 2053.85 218.251 2020.53C226.7 1987.22 228.451 1908.02 255.548 1922.04" stroke="#c27aff"/>
<path d="M322.519 2073.91C331.376 2103.62 315.454 2099.66 303.184 2105.97C290.914 2112.29 278.113 2111.72 263.624 2104.22C249.135 2096.72 239.432 2085.64 233.637 2069.97C227.842 2054.31 230.176 2051.24 235.808 2029.03C241.441 2006.82 242.608 1954.02 260.673 1963.37" stroke="#c27aff"/>
<path d="M296.721 2059.96C301.15 2074.81 293.189 2072.83 287.054 2075.99C280.919 2079.15 274.518 2078.86 267.274 2075.11C260.03 2071.36 255.178 2065.82 252.28 2057.99C249.383 2050.16 250.55 2048.62 253.366 2037.52C256.182 2026.41 256.766 2000.01 265.798 2004.69" stroke="#c27aff"/>
</g>
<g filter="url(#filter0_f_361_2483)">
<ellipse cx="1367.4" cy="46.5848" rx="169.968" ry="240.346" transform="rotate(-10.6345 1367.4 46.5848)" fill="#1D6298" fill-opacity="0.34"/>
</g>
<g filter="url(#filter1_f_361_2483)">
<ellipse cx="1215.63" cy="233.175" rx="260.138" ry="367.853" transform="rotate(-25.6233 1215.63 233.175)" fill="#c27aff" fill-opacity="0.32"/>
</g>
<g opacity="0.25">
<path d="M1343.95 3437.73C1615.93 3806.27 1382.46 4314.98 1083.07 4611.33C783.68 4907.68 185.158 5017.3 -93.1338 4860.22C-371.425 4703.14 -225.784 4277.74 -252.728 3857.35C-279.673 3436.95 -555.107 2929.73 -222.467 2842.31" stroke="#c27aff"/>
<path d="M1311.69 3455.95C1573.22 3810.33 1348.73 4299.47 1060.85 4584.42C772.976 4869.37 197.474 4974.77 -70.114 4823.73C-337.702 4672.69 -197.662 4263.66 -223.57 3859.43C-249.478 3455.21 -514.319 2967.5 -194.473 2883.44" stroke="#c27aff"/>
<path d="M1279.44 3474.18C1530.51 3814.38 1315 4283.95 1038.63 4557.51C762.272 4831.06 209.79 4932.24 -47.0944 4787.25C-303.979 4642.25 -169.541 4249.58 -194.412 3861.52C-219.284 3473.46 -473.532 3005.26 -166.479 2924.56" stroke="#c27aff"/>
<path d="M1247.19 3492.41C1487.79 3818.43 1281.26 4268.44 1016.41 4530.6C751.568 4792.75 222.106 4889.72 -24.0746 4750.76C-270.256 4611.81 -141.419 4235.5 -165.254 3863.61C-189.09 3491.72 -432.744 3043.03 -138.485 2965.69" stroke="#c27aff"/>
<path d="M1214.94 3510.64C1445.08 3822.48 1247.53 4252.93 994.196 4503.69C740.865 4754.44 234.423 4847.19 -1.05474 4714.28C-236.532 4581.37 -113.297 4221.42 -136.096 3865.7C-158.895 3509.98 -391.955 3080.79 -110.49 3006.82" stroke="#c27aff"/>
<path d="M1182.68 3528.86C1402.37 3826.54 1213.79 4237.41 971.977 4476.77C730.161 4716.14 246.739 4804.67 21.9648 4677.8C-202.809 4550.92 -85.1755 4207.34 -106.938 3867.79C-128.701 3528.24 -351.168 3118.56 -82.4965 3047.95" stroke="#c27aff"/>
<path d="M1150.43 3547.09C1359.65 3830.59 1180.06 4221.9 949.758 4449.86C719.457 4677.83 259.055 4762.14 44.9844 4641.31C-169.086 4520.48 -57.0541 4193.26 -77.7805 3869.87C-98.507 3546.49 -310.38 3156.32 -54.5026 3089.08" stroke="#c27aff"/>
<path d="M1118.18 3565.32C1316.94 3834.64 1146.33 4206.39 927.539 4422.95C708.753 4639.52 271.371 4719.62 68.0042 4604.83C-135.363 4490.04 -28.9323 4179.18 -48.6225 3871.96C-68.3126 3564.75 -269.592 3194.09 -26.5084 3130.2" stroke="#c27aff"/>
<path d="M1085.93 3583.55C1274.22 3838.69 1112.59 4190.87 905.32 4396.04C698.049 4601.21 283.687 4677.09 91.0238 4568.35C-101.64 4459.6 -0.810838 4165.1 -19.4647 3874.05C-38.1185 3583.01 -228.804 3231.86 1.48546 3171.33" stroke="#c27aff"/>
<path d="M1053.67 3601.77C1231.51 3842.74 1078.86 4175.36 883.101 4369.13C687.345 4562.9 296.003 4634.57 114.044 4531.86C-67.9163 4429.16 27.3109 4151.01 9.69341 3876.14C-7.92408 3601.26 -188.016 3269.62 29.4796 3212.46" stroke="#c27aff"/>
<path d="M1021.42 3620C1188.8 3846.8 1045.12 4159.85 860.882 4342.22C676.641 4524.59 308.32 4592.04 137.063 4495.38C-34.193 4398.71 55.4326 4136.93 38.8515 3878.23C22.2703 3619.52 -147.228 3307.39 57.4738 3253.59" stroke="#c27aff"/>
<path d="M989.168 3638.23C1146.08 3850.85 1011.39 4144.33 838.663 4315.31C665.937 4486.28 320.636 4549.52 160.083 4458.89C-0.469901 4368.27 83.5541 4122.85 68.0093 3880.32C52.4644 3637.78 -106.44 3345.15 85.4677 3294.72" stroke="#c27aff"/>
<path d="M956.915 3656.45C1103.37 3854.9 977.655 4128.82 816.444 4288.4C655.233 4447.97 332.952 4506.99 183.103 4422.41C33.2534 4337.83 111.676 4108.77 97.1673 3882.4C82.6588 3656.04 -65.6523 3382.92 113.462 3335.85" stroke="#c27aff"/>
<path d="M924.662 3674.68C1060.66 3858.95 943.921 4113.31 794.225 4261.48C644.529 4409.66 345.268 4464.47 206.122 4385.93C66.9765 4307.39 139.797 4094.69 126.325 3884.49C112.853 3674.29 -24.8645 3420.68 141.456 3376.97" stroke="#c27aff"/>
<path d="M892.41 3692.91C1017.94 3863.01 910.187 4097.79 772.006 4234.57C633.825 4371.35 357.584 4421.94 229.142 4349.44C100.7 4276.94 167.919 4080.61 155.483 3886.58C143.047 3692.55 15.9236 3458.45 169.45 3418.1" stroke="#c27aff"/>
<path d="M860.157 3711.14C975.229 3867.06 876.453 4082.28 749.787 4207.66C623.121 4333.04 369.9 4379.42 252.162 4312.96C134.423 4246.5 196.041 4066.53 184.641 3888.67C173.241 3710.81 56.7113 3496.22 197.444 3459.23" stroke="#c27aff"/>
<path d="M827.905 3729.36C932.515 3871.11 842.719 4066.77 727.568 4180.75C612.418 4294.73 382.217 4336.89 275.182 4276.48C168.146 4216.06 224.162 4052.45 213.799 3890.76C203.436 3729.07 97.4994 3533.98 225.438 3500.36" stroke="#c27aff"/>
<path d="M795.652 3747.59C889.801 3875.17 808.985 4051.26 705.349 4153.84C601.714 4256.42 394.533 4294.37 298.201 4239.99C201.869 4185.62 252.284 4038.37 242.957 3892.84C233.63 3747.32 138.287 3571.75 253.432 3541.49" stroke="#c27aff"/>
<path d="M763.399 3765.82C847.088 3879.22 775.251 4035.74 683.13 4126.93C591.01 4218.11 406.849 4251.84 321.221 4203.51C235.593 4155.18 280.406 4024.29 272.115 3894.93C263.824 3765.58 179.075 3609.51 281.426 3582.61" stroke="#c27aff"/>
<path d="M731.147 3784.05C804.374 3883.27 741.517 4020.23 660.911 4100.02C580.306 4179.8 419.165 4209.31 344.24 4167.02C269.316 4124.73 308.527 4010.2 301.273 3897.02C294.018 3783.84 219.863 3647.28 309.42 3623.74" stroke="#c27aff"/>
<path d="M698.894 3802.27C761.66 3887.32 707.783 4004.72 638.692 4073.11C569.602 4141.49 431.481 4166.79 367.26 4130.54C303.039 4094.29 336.649 3996.12 330.431 3899.11C324.213 3802.09 260.651 3685.04 337.414 3664.87" stroke="#c27aff"/>
<path d="M666.641 3820.5C718.947 3891.37 674.048 3989.2 616.473 4046.19C558.898 4103.18 443.797 4124.26 390.28 4094.06C336.762 4063.85 364.77 3982.04 359.589 3901.2C354.407 3820.35 301.439 3722.81 365.408 3706" stroke="#c27aff"/>
<path d="M634.389 3838.73C676.233 3895.43 640.315 3973.69 594.254 4019.28C548.194 4064.88 456.114 4081.74 413.3 4057.57C370.486 4033.41 392.892 3967.96 388.747 3903.29C384.601 3838.61 342.227 3760.57 393.402 3747.13" stroke="#c27aff"/>
<path d="M602.136 3856.96C633.52 3899.48 606.581 3958.18 572.035 3992.37C537.49 4026.57 468.43 4039.21 436.319 4021.09C404.209 4002.96 421.014 3953.88 417.905 3905.37C414.796 3856.87 383.015 3798.34 421.396 3788.25" stroke="#c27aff"/>
<path d="M569.884 3875.18C590.806 3903.53 572.847 3942.66 549.816 3965.46C526.786 3988.26 480.746 3996.69 459.339 3984.61C437.932 3972.52 449.135 3939.8 447.063 3907.46C444.99 3875.12 423.803 3836.11 449.39 3829.38" stroke="#c27aff"/>
<path d="M537.631 3893.41C548.092 3907.59 539.112 3927.15 527.597 3938.55C516.082 3949.95 493.062 3954.16 482.359 3948.12C471.655 3942.08 477.257 3925.72 476.22 3909.55C475.184 3893.38 464.59 3873.87 477.384 3870.51" stroke="#c27aff"/>
<path d="M521.505 3902.52C526.735 3909.61 522.246 3919.39 516.488 3925.09C510.73 3930.79 499.22 3932.9 493.869 3929.88C488.517 3926.86 491.318 3918.68 490.8 3910.59C490.281 3902.51 484.985 3892.76 491.381 3891.07" stroke="#c27aff"/>
</g>
<g opacity="0.25">
<path d="M1751.91 6349.87C1504.45 6549.66 1164.41 6165.21 901.573 6049.32C638.735 5933.42 592.41 5946.4 490.289 5793.57C388.168 5640.73 363.82 5493.27 411.393 5315.72C458.966 5138.17 553.783 5022.63 718.638 4941.33C883.493 4860.03 917.122 4894.44 1202.7 4925.48C1488.27 4956.53 1974.97 4793.6 2089.39 5090.35" stroke="#c27aff"/>
<path d="M1732.43 6322.38C1494.67 6514.33 1167.96 6144.96 915.433 6033.61C662.902 5922.26 618.394 5934.73 520.278 5787.89C422.161 5641.05 398.769 5499.36 444.476 5328.78C490.183 5158.19 581.282 5047.19 739.672 4969.07C898.062 4890.96 930.372 4924.02 1204.75 4953.85C1479.12 4983.67 1946.74 4827.14 2056.67 5112.25" stroke="#c27aff"/>
<path d="M1712.94 6294.88C1484.89 6479 1171.52 6124.71 929.293 6017.9C687.069 5911.09 644.378 5923.05 550.266 5782.21C456.155 5641.36 433.717 5505.46 477.558 5341.84C521.4 5178.21 608.781 5071.74 760.706 4996.82C912.631 4921.89 943.622 4953.6 1206.8 4982.21C1469.97 5010.82 1918.5 4860.67 2023.95 5134.15" stroke="#c27aff"/>
<path d="M1693.45 6267.39C1475.1 6443.67 1175.07 6104.45 943.153 6002.19C711.237 5899.93 670.361 5911.38 580.255 5776.53C490.148 5641.67 468.665 5511.56 510.641 5354.9C552.617 5198.24 636.279 5096.29 781.74 5024.56C927.2 4952.82 956.873 4983.18 1208.85 5010.57C1460.83 5037.96 1890.27 4894.21 1991.23 5156.04" stroke="#c27aff"/>
<path d="M1673.97 6239.89C1465.32 6408.34 1178.62 6084.2 957.013 5986.48C735.404 5888.76 696.345 5899.71 610.244 5770.85C524.142 5641.99 503.613 5517.65 543.724 5367.96C583.834 5218.26 663.778 5120.84 802.773 5052.3C941.769 4983.75 970.123 5012.76 1210.9 5038.93C1451.68 5065.11 1862.03 4927.74 1958.51 5177.94" stroke="#c27aff"/>
<path d="M1654.48 6212.39C1455.54 6373 1182.17 6063.94 970.872 5970.77C759.571 5877.6 722.329 5888.03 640.232 5765.17C558.135 5642.3 538.562 5523.75 576.806 5381.01C615.051 5238.28 691.277 5145.4 823.807 5080.04C956.337 5014.68 983.373 5042.34 1212.95 5067.3C1442.53 5092.25 1833.8 4961.28 1925.79 5199.84" stroke="#c27aff"/>
<path d="M1634.99 6184.9C1445.76 6337.67 1185.73 6043.69 984.732 5955.06C783.738 5866.43 748.313 5876.36 670.221 5759.49C592.129 5642.61 573.51 5529.85 609.889 5394.07C646.268 5258.3 718.776 5169.95 844.841 5107.78C970.906 5045.61 996.623 5071.92 1215 5095.66C1433.38 5119.4 1805.57 4994.81 1893.06 5221.74" stroke="#c27aff"/>
<path d="M1615.5 6157.4C1435.97 6302.34 1189.28 6023.43 998.592 5939.35C807.906 5855.27 774.297 5864.69 700.21 5753.81C626.122 5642.93 608.458 5535.94 642.972 5407.13C677.485 5278.32 746.274 5194.5 865.875 5135.52C985.475 5076.54 1009.87 5101.5 1217.05 5124.02C1424.23 5146.54 1777.33 5028.34 1860.34 5243.63" stroke="#c27aff"/>
<path d="M1596.02 6129.91C1426.19 6267.01 1192.83 6003.18 1012.45 5923.64C832.073 5844.1 800.281 5853.01 730.198 5748.13C660.115 5643.24 643.406 5542.04 676.054 5420.19C708.702 5298.35 773.773 5219.05 886.909 5163.26C1000.04 5107.47 1023.12 5131.08 1219.1 5152.38C1415.09 5173.69 1749.1 5061.88 1827.62 5265.53" stroke="#c27aff"/>
<path d="M1576.53 6102.41C1416.41 6231.68 1196.38 5982.93 1026.31 5907.93C856.24 5832.94 826.265 5841.34 760.187 5742.45C694.109 5643.55 678.354 5548.14 709.137 5433.25C739.919 5318.37 801.272 5243.61 907.942 5191C1014.61 5138.4 1036.37 5160.66 1221.16 5180.75C1405.94 5200.83 1720.86 5095.41 1794.9 5287.43" stroke="#c27aff"/>
<path d="M1557.04 6074.91C1406.63 6196.35 1199.94 5962.67 1040.17 5892.22C880.407 5821.78 852.249 5829.67 790.176 5736.77C728.102 5643.87 713.303 5554.23 742.219 5446.31C771.136 5338.39 828.77 5268.16 928.976 5218.74C1029.18 5169.33 1049.62 5190.24 1223.21 5209.11C1396.79 5227.98 1692.63 5128.95 1762.18 5309.32" stroke="#c27aff"/>
<path d="M1537.56 6047.42C1396.84 6161.02 1203.49 5942.42 1054.03 5876.51C904.575 5810.61 878.233 5817.99 820.164 5731.09C762.096 5644.18 748.251 5560.33 775.302 5459.37C802.353 5358.41 856.269 5292.71 950.01 5246.48C1043.75 5200.26 1062.87 5219.82 1225.26 5237.47C1387.64 5255.13 1664.4 5162.48 1729.46 5331.22" stroke="#c27aff"/>
<path d="M1518.07 6019.92C1387.06 6125.69 1207.04 5922.16 1067.89 5860.81C928.742 5799.45 904.217 5806.32 850.153 5725.41C796.089 5644.5 783.199 5566.43 808.385 5472.43C833.57 5378.43 883.768 5317.27 971.044 5274.23C1058.32 5231.19 1076.12 5249.4 1227.31 5265.83C1378.5 5282.27 1636.16 5196.02 1696.74 5353.12" stroke="#c27aff"/>
<path d="M1498.58 5992.43C1377.28 6090.36 1210.59 5901.91 1081.75 5845.1C952.909 5788.28 930.201 5794.65 880.142 5719.73C830.082 5644.81 818.147 5572.52 841.467 5485.49C864.787 5398.46 911.266 5341.82 992.078 5301.97C1072.89 5262.11 1089.37 5278.98 1229.36 5294.2C1369.35 5309.42 1607.93 5229.55 1664.02 5375.02" stroke="#c27aff"/>
<path d="M1479.1 5964.93C1367.5 6055.03 1214.15 5881.65 1095.61 5829.39C977.076 5777.12 956.185 5782.97 910.13 5714.05C864.076 5645.12 853.095 5578.62 874.55 5498.55C896.004 5418.48 938.765 5366.37 1013.11 5329.71C1087.46 5293.04 1102.62 5308.56 1231.41 5322.56C1360.2 5336.56 1579.69 5263.08 1631.29 5396.91" stroke="#c27aff"/>
<path d="M1459.61 5937.44C1357.71 6019.7 1217.7 5861.4 1109.47 5813.68C1001.24 5765.95 982.169 5771.3 940.119 5708.37C898.069 5645.44 888.044 5584.72 907.632 5511.61C927.221 5438.5 966.264 5390.92 1034.15 5357.45C1102.03 5323.97 1115.87 5338.14 1233.46 5350.92C1351.05 5363.71 1551.46 5296.62 1598.57 5418.81" stroke="#c27aff"/>
<path d="M1440.12 5909.94C1347.93 5984.37 1221.25 5841.15 1123.33 5797.97C1025.41 5754.79 1008.15 5759.63 970.108 5702.69C932.063 5645.75 922.992 5590.81 940.715 5524.67C958.438 5458.52 993.762 5415.48 1055.18 5385.19C1116.6 5354.9 1129.12 5367.72 1235.51 5379.28C1341.9 5390.85 1523.22 5330.15 1565.85 5440.71" stroke="#c27aff"/>
<path d="M1420.64 5882.44C1338.15 5949.04 1224.8 5820.89 1137.19 5782.26C1049.58 5743.63 1034.14 5747.95 1000.1 5697.01C966.056 5646.06 957.94 5596.91 973.798 5537.73C989.655 5478.54 1021.26 5440.03 1076.21 5412.93C1131.16 5385.83 1142.37 5397.3 1237.57 5407.65C1332.76 5418 1494.99 5363.69 1533.13 5462.6" stroke="#c27aff"/>
<path d="M1401.15 5854.95C1328.37 5913.71 1228.36 5800.64 1151.05 5766.55C1073.75 5732.46 1060.12 5736.28 1030.08 5691.33C1000.05 5646.38 992.888 5603 1006.88 5550.78C1020.87 5498.56 1048.76 5464.58 1097.25 5440.67C1145.73 5416.76 1155.62 5426.88 1239.62 5436.01C1323.61 5445.14 1466.76 5397.22 1500.41 5484.5" stroke="#c27aff"/>
<path d="M1381.66 5827.45C1318.59 5878.38 1231.91 5780.38 1164.91 5750.84C1097.91 5721.3 1086.1 5724.61 1060.07 5685.65C1034.04 5646.69 1027.84 5609.1 1039.96 5563.84C1052.09 5518.59 1076.26 5489.14 1118.28 5468.41C1160.3 5447.69 1168.87 5456.46 1241.67 5464.37C1314.46 5472.29 1438.52 5430.76 1467.69 5506.4" stroke="#c27aff"/>
<path d="M1362.18 5799.96C1308.8 5843.05 1235.46 5760.13 1178.77 5735.13C1122.08 5710.13 1112.09 5712.93 1090.06 5679.97C1068.04 5647 1062.78 5615.2 1073.05 5576.9C1083.31 5538.61 1103.76 5513.69 1139.31 5496.15C1174.87 5478.62 1182.12 5486.04 1243.72 5492.73C1305.31 5499.43 1410.29 5464.29 1434.97 5528.29" stroke="#c27aff"/>
<path d="M1342.69 5772.46C1299.02 5807.72 1239.01 5739.87 1192.63 5719.42C1146.25 5698.97 1138.07 5701.26 1120.05 5674.29C1102.03 5647.32 1097.73 5621.29 1106.13 5589.96C1114.52 5558.63 1131.26 5538.24 1160.35 5523.89C1189.44 5509.55 1195.37 5515.62 1245.77 5521.1C1296.17 5526.58 1382.05 5497.82 1402.25 5550.19" stroke="#c27aff"/>
<path d="M1323.2 5744.96C1289.24 5772.39 1242.57 5719.62 1206.49 5703.71C1170.41 5687.8 1164.06 5689.59 1150.04 5668.61C1136.02 5647.63 1132.68 5627.39 1139.21 5603.02C1145.74 5578.65 1158.75 5562.79 1181.38 5551.64C1204.01 5540.48 1208.62 5545.2 1247.82 5549.46C1287.02 5553.72 1353.82 5531.36 1369.52 5572.09" stroke="#c27aff"/>
<path d="M1303.72 5717.47C1279.46 5737.06 1246.12 5699.36 1220.35 5688C1194.58 5676.64 1190.04 5677.91 1180.03 5662.93C1170.02 5647.95 1167.63 5633.49 1172.29 5616.08C1176.96 5598.67 1186.25 5587.35 1202.42 5579.38C1218.58 5571.41 1221.87 5574.78 1249.87 5577.82C1277.87 5580.87 1325.59 5564.89 1336.8 5593.99" stroke="#c27aff"/>
<path d="M1284.23 5689.97C1269.67 5701.73 1249.67 5679.11 1234.21 5672.29C1218.75 5665.48 1216.02 5666.24 1210.02 5657.25C1204.01 5648.26 1202.58 5639.58 1205.38 5629.14C1208.17 5618.7 1213.75 5611.9 1223.45 5607.12C1233.15 5602.34 1235.12 5604.36 1251.92 5606.19C1268.72 5608.01 1297.35 5598.43 1304.08 5615.88" stroke="#c27aff"/>
<path d="M1264.74 5662.48C1259.89 5666.39 1253.22 5658.86 1248.07 5656.58C1242.92 5654.31 1242.01 5654.57 1240.01 5651.57C1238 5648.57 1237.53 5645.68 1238.46 5642.2C1239.39 5638.72 1241.25 5636.45 1244.48 5634.86C1247.72 5633.26 1248.37 5633.94 1253.97 5634.55C1259.57 5635.16 1269.12 5631.96 1271.36 5637.78" stroke="#c27aff"/>
</g>
</g>
<defs>
<filter id="filter0_f_361_2483" x="880.524" y="-505.734" width="973.759" height="1104.64" filterUnits="userSpaceOnUse" color-interpolation-filters="sRGB">
<feFlood flood-opacity="0" result="BackgroundImageFix"/>
<feBlend mode="normal" in="SourceGraphic" in2="BackgroundImageFix" result="shape"/>
<feGaussianBlur stdDeviation="157" result="effect1_foregroundBlur_361_2483"/>
</filter>
<filter id="filter1_f_361_2483" x="618.194" y="-431.157" width="1194.88" height="1328.66" filterUnits="userSpaceOnUse" color-interpolation-filters="sRGB">
<feFlood flood-opacity="0" result="BackgroundImageFix"/>
<feBlend mode="normal" in="SourceGraphic" in2="BackgroundImageFix" result="shape"/>
<feGaussianBlur stdDeviation="157" result="effect1_foregroundBlur_361_2483"/>
</filter>
<clipPath id="clip0_361_2483">
<rect width="1440" height="7736" fill="white"/>
</clipPath>
</defs>
</svg>
