<svg width="102" height="94" viewBox="0 0 102 94" fill="none" xmlns="http://www.w3.org/2000/svg">
<circle cx="1.5" cy="1.5" r="1.5" transform="matrix(-1 0 0 1 3 0)" fill="#D9D9D9"/>
<circle cx="1.5" cy="1.5" r="1.5" transform="matrix(-1 0 0 1 3 13)" fill="#D9D9D9"/>
<circle cx="1.5" cy="1.5" r="1.5" transform="matrix(-1 0 0 1 3 26)" fill="#D9D9D9"/>
<circle cx="1.5" cy="1.5" r="1.5" transform="matrix(-1 0 0 1 3 39)" fill="#D9D9D9"/>
<circle cx="1.5" cy="1.5" r="1.5" transform="matrix(-1 0 0 1 3 52)" fill="#D9D9D9"/>
<circle cx="1.5" cy="1.5" r="1.5" transform="matrix(-1 0 0 1 3 65)" fill="#D9D9D9"/>
<circle cx="1.5" cy="1.5" r="1.5" transform="matrix(-1 0 0 1 3 78)" fill="#D9D9D9"/>
<circle cx="1.5" cy="1.5" r="1.5" transform="matrix(-1 0 0 1 3 91)" fill="#D9D9D9"/>
<circle cx="1.5" cy="1.5" r="1.5" transform="matrix(-1 0 0 1 14 0)" fill="#D9D9D9"/>
<circle cx="1.5" cy="1.5" r="1.5" transform="matrix(-1 0 0 1 14 13)" fill="#D9D9D9"/>
<circle cx="1.5" cy="1.5" r="1.5" transform="matrix(-1 0 0 1 14 26)" fill="#D9D9D9"/>
<circle cx="1.5" cy="1.5" r="1.5" transform="matrix(-1 0 0 1 14 39)" fill="#D9D9D9"/>
<circle cx="1.5" cy="1.5" r="1.5" transform="matrix(-1 0 0 1 14 52)" fill="#D9D9D9"/>
<circle cx="1.5" cy="1.5" r="1.5" transform="matrix(-1 0 0 1 14 65)" fill="#D9D9D9"/>
<circle cx="1.5" cy="1.5" r="1.5" transform="matrix(-1 0 0 1 14 78)" fill="#D9D9D9"/>
<circle cx="1.5" cy="1.5" r="1.5" transform="matrix(-1 0 0 1 14 91)" fill="#D9D9D9"/>
<circle cx="1.5" cy="1.5" r="1.5" transform="matrix(-1 0 0 1 25 0)" fill="#D9D9D9"/>
<circle cx="1.5" cy="1.5" r="1.5" transform="matrix(-1 0 0 1 25 13)" fill="#D9D9D9"/>
<circle cx="1.5" cy="1.5" r="1.5" transform="matrix(-1 0 0 1 25 26)" fill="#D9D9D9"/>
<circle cx="1.5" cy="1.5" r="1.5" transform="matrix(-1 0 0 1 25 39)" fill="#D9D9D9"/>
<circle cx="1.5" cy="1.5" r="1.5" transform="matrix(-1 0 0 1 25 52)" fill="#D9D9D9"/>
<circle cx="1.5" cy="1.5" r="1.5" transform="matrix(-1 0 0 1 25 65)" fill="#D9D9D9"/>
<circle cx="1.5" cy="1.5" r="1.5" transform="matrix(-1 0 0 1 25 78)" fill="#D9D9D9"/>
<circle cx="1.5" cy="1.5" r="1.5" transform="matrix(-1 0 0 1 25 91)" fill="#D9D9D9"/>
<circle cx="1.5" cy="1.5" r="1.5" transform="matrix(-1 0 0 1 36 0)" fill="#D9D9D9"/>
<circle cx="1.5" cy="1.5" r="1.5" transform="matrix(-1 0 0 1 36 13)" fill="#D9D9D9"/>
<circle cx="1.5" cy="1.5" r="1.5" transform="matrix(-1 0 0 1 36 26)" fill="#D9D9D9"/>
<circle cx="1.5" cy="1.5" r="1.5" transform="matrix(-1 0 0 1 36 39)" fill="#D9D9D9"/>
<circle cx="1.5" cy="1.5" r="1.5" transform="matrix(-1 0 0 1 36 52)" fill="#D9D9D9"/>
<circle cx="1.5" cy="1.5" r="1.5" transform="matrix(-1 0 0 1 36 65)" fill="#D9D9D9"/>
<circle cx="1.5" cy="1.5" r="1.5" transform="matrix(-1 0 0 1 36 78)" fill="#D9D9D9"/>
<circle cx="1.5" cy="1.5" r="1.5" transform="matrix(-1 0 0 1 36 91)" fill="#D9D9D9"/>
<circle cx="1.5" cy="1.5" r="1.5" transform="matrix(-1 0 0 1 47 0)" fill="#D9D9D9"/>
<circle cx="1.5" cy="1.5" r="1.5" transform="matrix(-1 0 0 1 47 13)" fill="#D9D9D9"/>
<circle cx="1.5" cy="1.5" r="1.5" transform="matrix(-1 0 0 1 47 26)" fill="#D9D9D9"/>
<circle cx="1.5" cy="1.5" r="1.5" transform="matrix(-1 0 0 1 47 39)" fill="#D9D9D9"/>
<circle cx="1.5" cy="1.5" r="1.5" transform="matrix(-1 0 0 1 47 52)" fill="#D9D9D9"/>
<circle cx="1.5" cy="1.5" r="1.5" transform="matrix(-1 0 0 1 47 65)" fill="#D9D9D9"/>
<circle cx="1.5" cy="1.5" r="1.5" transform="matrix(-1 0 0 1 47 78)" fill="#D9D9D9"/>
<circle cx="1.5" cy="1.5" r="1.5" transform="matrix(-1 0 0 1 47 91)" fill="#D9D9D9"/>
<circle cx="1.5" cy="1.5" r="1.5" transform="matrix(-1 0 0 1 58 0)" fill="#D9D9D9"/>
<circle cx="1.5" cy="1.5" r="1.5" transform="matrix(-1 0 0 1 58 13)" fill="#D9D9D9"/>
<circle cx="1.5" cy="1.5" r="1.5" transform="matrix(-1 0 0 1 58 26)" fill="#D9D9D9"/>
<circle cx="1.5" cy="1.5" r="1.5" transform="matrix(-1 0 0 1 58 39)" fill="#D9D9D9"/>
<circle cx="1.5" cy="1.5" r="1.5" transform="matrix(-1 0 0 1 58 52)" fill="#D9D9D9"/>
<circle cx="1.5" cy="1.5" r="1.5" transform="matrix(-1 0 0 1 58 65)" fill="#D9D9D9"/>
<circle cx="1.5" cy="1.5" r="1.5" transform="matrix(-1 0 0 1 58 78)" fill="#D9D9D9"/>
<circle cx="1.5" cy="1.5" r="1.5" transform="matrix(-1 0 0 1 58 91)" fill="#D9D9D9"/>
<circle cx="1.5" cy="1.5" r="1.5" transform="matrix(-1 0 0 1 69 0)" fill="#D9D9D9"/>
<circle cx="1.5" cy="1.5" r="1.5" transform="matrix(-1 0 0 1 69 13)" fill="#D9D9D9"/>
<circle cx="1.5" cy="1.5" r="1.5" transform="matrix(-1 0 0 1 69 26)" fill="#D9D9D9"/>
<circle cx="1.5" cy="1.5" r="1.5" transform="matrix(-1 0 0 1 69 39)" fill="#D9D9D9"/>
<circle cx="1.5" cy="1.5" r="1.5" transform="matrix(-1 0 0 1 69 52)" fill="#D9D9D9"/>
<circle cx="1.5" cy="1.5" r="1.5" transform="matrix(-1 0 0 1 69 65)" fill="#D9D9D9"/>
<circle cx="1.5" cy="1.5" r="1.5" transform="matrix(-1 0 0 1 69 78)" fill="#D9D9D9"/>
<circle cx="1.5" cy="1.5" r="1.5" transform="matrix(-1 0 0 1 69 91)" fill="#D9D9D9"/>
<circle cx="1.5" cy="1.5" r="1.5" transform="matrix(-1 0 0 1 80 0)" fill="#D9D9D9"/>
<circle cx="1.5" cy="1.5" r="1.5" transform="matrix(-1 0 0 1 80 13)" fill="#D9D9D9"/>
<circle cx="1.5" cy="1.5" r="1.5" transform="matrix(-1 0 0 1 80 26)" fill="#D9D9D9"/>
<circle cx="1.5" cy="1.5" r="1.5" transform="matrix(-1 0 0 1 80 39)" fill="#D9D9D9"/>
<circle cx="1.5" cy="1.5" r="1.5" transform="matrix(-1 0 0 1 80 52)" fill="#D9D9D9"/>
<circle cx="1.5" cy="1.5" r="1.5" transform="matrix(-1 0 0 1 80 65)" fill="#D9D9D9"/>
<circle cx="1.5" cy="1.5" r="1.5" transform="matrix(-1 0 0 1 80 78)" fill="#D9D9D9"/>
<circle cx="1.5" cy="1.5" r="1.5" transform="matrix(-1 0 0 1 80 91)" fill="#D9D9D9"/>
<circle cx="1.5" cy="1.5" r="1.5" transform="matrix(-1 0 0 1 91 0)" fill="#D9D9D9"/>
<circle cx="1.5" cy="1.5" r="1.5" transform="matrix(-1 0 0 1 91 13)" fill="#D9D9D9"/>
<circle cx="1.5" cy="1.5" r="1.5" transform="matrix(-1 0 0 1 91 26)" fill="#D9D9D9"/>
<circle cx="1.5" cy="1.5" r="1.5" transform="matrix(-1 0 0 1 91 39)" fill="#D9D9D9"/>
<circle cx="1.5" cy="1.5" r="1.5" transform="matrix(-1 0 0 1 91 52)" fill="#D9D9D9"/>
<circle cx="1.5" cy="1.5" r="1.5" transform="matrix(-1 0 0 1 91 65)" fill="#D9D9D9"/>
<circle cx="1.5" cy="1.5" r="1.5" transform="matrix(-1 0 0 1 91 78)" fill="#D9D9D9"/>
<circle cx="1.5" cy="1.5" r="1.5" transform="matrix(-1 0 0 1 91 91)" fill="#D9D9D9"/>
<circle cx="1.5" cy="1.5" r="1.5" transform="matrix(-1 0 0 1 102 0)" fill="#D9D9D9"/>
<circle cx="1.5" cy="1.5" r="1.5" transform="matrix(-1 0 0 1 102 13)" fill="#D9D9D9"/>
<circle cx="1.5" cy="1.5" r="1.5" transform="matrix(-1 0 0 1 102 26)" fill="#D9D9D9"/>
<circle cx="1.5" cy="1.5" r="1.5" transform="matrix(-1 0 0 1 102 39)" fill="#D9D9D9"/>
<circle cx="1.5" cy="1.5" r="1.5" transform="matrix(-1 0 0 1 102 52)" fill="#D9D9D9"/>
<circle cx="1.5" cy="1.5" r="1.5" transform="matrix(-1 0 0 1 102 65)" fill="#D9D9D9"/>
<circle cx="1.5" cy="1.5" r="1.5" transform="matrix(-1 0 0 1 102 78)" fill="#D9D9D9"/>
<circle cx="1.5" cy="1.5" r="1.5" transform="matrix(-1 0 0 1 102 91)" fill="#D9D9D9"/>
</svg>
